<svg id="svg" version="1.1" width="1024" height="1024" viewBox="312.1966857910156 288.9670104980469 401.6573181152344 445.0740051269531" xmlns="http://www.w3.org/2000/svg" style="fill: rgb(90, 194, 55); height: 140px;"><path d="M433.197 307.234 L 407.974 325.500 541.487 325.754 L 675.000 326.007 675.002 493.754 L 675.004 661.500 693.085 685.500 C 703.030 698.700,711.810 710.166,712.598 710.979 C 713.840 712.262,713.994 686.273,713.765 514.479 L 713.500 316.500 710.820 310.782 C 707.443 303.578,700.594 296.201,693.774 292.422 L 688.500 289.500 573.460 289.234 L 458.420 288.967 433.197 307.234 M312.240 519.185 L 312.500 706.500 315.180 712.218 C 318.727 719.785,325.936 727.330,332.875 730.738 L 338.500 733.500 428.031 733.771 L 517.561 734.041 545.752 713.771 L 573.943 693.500 462.972 693.246 L 352.000 692.991 351.999 537.746 L 351.999 382.500 340.744 368.000 C 334.554 360.025,325.951 348.881,321.627 343.236 C 317.303 337.591,313.363 332.724,312.872 332.421 C 312.349 332.098,312.087 409.493,312.240 519.185 M411.000 511.500 C 411.000 591.195,411.382 655.972,411.850 655.450 C 412.317 654.927,421.992 640.443,433.350 623.263 L 454.000 592.025 454.052 548.263 C 454.100 508.365,454.242 504.697,455.661 506.730 C 458.408 510.666,506.421 577.327,510.024 582.208 C 511.936 584.797,513.795 586.822,514.155 586.708 C 514.661 586.547,563.987 518.762,572.198 506.943 C 573.806 504.628,573.898 506.787,573.948 548.084 L 574.000 591.669 584.750 608.326 C 590.663 617.487,600.106 632.074,605.735 640.741 L 615.970 656.500 615.985 511.583 C 615.993 431.879,615.830 366.854,615.623 367.083 C 615.263 367.480,600.076 387.795,541.130 466.731 L 514.820 501.962 503.128 486.731 C 487.012 465.738,448.918 415.891,429.205 390.000 C 420.202 378.175,412.422 368.073,411.918 367.550 C 411.361 366.973,411.000 423.545,411.000 511.500 " stroke="none" fillnot="black" fillnot-rule="evenodd"></path></svg>